<svg width="24" height="25" viewBox="0 0 24 25" fill="none" xmlns="http://www.w3.org/2000/svg">
<path d="M21.4286 0.714233H2.57143C1.88944 0.714233 1.23539 0.985151 0.753154 1.46739C0.270918 1.94962 0 2.60368 0 3.28566L0 22.1428C0 22.8248 0.270918 23.4788 0.753154 23.9611C1.23539 24.4433 1.88944 24.7142 2.57143 24.7142H9.92411V16.5548H6.54911V12.7142H9.92411V9.78709C9.92411 6.45763 11.9063 4.61852 14.9421 4.61852C16.3961 4.61852 17.9164 4.87781 17.9164 4.87781V8.14566H16.2413C14.5907 8.14566 14.0759 9.16995 14.0759 10.2205V12.7142H17.7605L17.1712 16.5548H14.0759V24.7142H21.4286C22.1106 24.7142 22.7646 24.4433 23.2468 23.9611C23.7291 23.4788 24 22.8248 24 22.1428V3.28566C24 2.60368 23.7291 1.94962 23.2468 1.46739C22.7646 0.985151 22.1106 0.714233 21.4286 0.714233Z" fill="#111827"/>
</svg>
