<svg width="24" height="25" viewBox="0 0 24 25" fill="none" xmlns="http://www.w3.org/2000/svg">
<path d="M12.0054 6.55362C8.59822 6.55362 5.85 9.30183 5.85 12.709C5.85 16.1161 8.59822 18.8643 12.0054 18.8643C15.4125 18.8643 18.1607 16.1161 18.1607 12.709C18.1607 9.30183 15.4125 6.55362 12.0054 6.55362ZM12.0054 16.7108C9.80357 16.7108 8.00357 14.9161 8.00357 12.709C8.00357 10.5018 9.79821 8.70719 12.0054 8.70719C14.2125 8.70719 16.0071 10.5018 16.0071 12.709C16.0071 14.9161 14.2071 16.7108 12.0054 16.7108ZM19.8482 6.30183C19.8482 7.10005 19.2053 7.73755 18.4125 7.73755C17.6143 7.73755 16.9768 7.09469 16.9768 6.30183C16.9768 5.50897 17.6196 4.86612 18.4125 4.86612C19.2053 4.86612 19.8482 5.50897 19.8482 6.30183ZM23.925 7.75897C23.8339 5.83576 23.3946 4.13219 21.9857 2.72862C20.5821 1.32505 18.8786 0.88576 16.9553 0.789331C14.9732 0.676831 9.03214 0.676831 7.05 0.789331C5.13215 0.880402 3.42858 1.31969 2.01965 2.72326C0.610726 4.12683 0.176798 5.8304 0.0803695 7.75362C-0.0321304 9.73576 -0.0321304 15.6768 0.0803695 17.659C0.171441 19.5822 0.610726 21.2858 2.01965 22.6893C3.42858 24.0929 5.12679 24.5322 7.05 24.6286C9.03214 24.7411 14.9732 24.7411 16.9553 24.6286C18.8786 24.5375 20.5821 24.0983 21.9857 22.6893C23.3893 21.2858 23.8286 19.5822 23.925 17.659C24.0375 15.6768 24.0375 9.74112 23.925 7.75897ZM21.3643 19.7858C20.9464 20.8358 20.1375 21.6447 19.0821 22.0679C17.5018 22.6947 13.7518 22.55 12.0054 22.55C10.2589 22.55 6.50358 22.6893 4.92858 22.0679C3.87858 21.65 3.06965 20.8411 2.64644 19.7858C2.01965 18.2054 2.1643 14.4554 2.1643 12.709C2.1643 10.9625 2.02501 7.20719 2.64644 5.63219C3.06429 4.58219 3.87322 3.77326 4.92858 3.35005C6.50893 2.72326 10.2589 2.8679 12.0054 2.8679C13.7518 2.8679 17.5071 2.72862 19.0821 3.35005C20.1321 3.7679 20.9411 4.57683 21.3643 5.63219C21.9911 7.21255 21.8464 10.9625 21.8464 12.709C21.8464 14.4554 21.9911 18.2108 21.3643 19.7858Z" fill="#111827"/>
</svg>
