<svg width="24" height="21" viewBox="0 0 24 21" fill="none" xmlns="http://www.w3.org/2000/svg">
<path d="M21.533 5.82586C21.5482 6.03905 21.5482 6.25228 21.5482 6.46547C21.5482 12.968 16.599 20.4604 7.5533 20.4604C4.76648 20.4604 2.17767 19.6532 0 18.2523C0.395953 18.2979 0.776625 18.3132 1.18781 18.3132C3.48727 18.3132 5.60405 17.5365 7.29441 16.2117C5.13197 16.166 3.31978 14.7497 2.69541 12.8005C3 12.8461 3.30455 12.8766 3.62437 12.8766C4.06598 12.8766 4.50764 12.8157 4.91878 12.7091C2.66498 12.2522 0.974578 10.2726 0.974578 7.88171V7.82081C1.62937 8.1863 2.39086 8.41472 3.19791 8.44514C1.87303 7.56188 1.00505 6.05428 1.00505 4.34869C1.00505 3.435 1.24866 2.59744 1.67508 1.86647C4.09641 4.85124 7.73602 6.80044 11.8172 7.01367C11.7411 6.64819 11.6954 6.26752 11.6954 5.8868C11.6954 3.17611 13.8883 0.968018 16.6141 0.968018C18.0304 0.968018 19.3095 1.56192 20.208 2.52131C21.3197 2.30813 22.3857 1.89694 23.3299 1.3335C22.9643 2.47566 22.1877 3.43505 21.1674 4.04414C22.1573 3.9376 23.1167 3.66342 23.9999 3.28275C23.33 4.25733 22.4924 5.12531 21.533 5.82586Z" fill="#111827"/>
</svg>
