<svg width="24" height="17" viewBox="0 0 24 17" fill="none" xmlns="http://www.w3.org/2000/svg">
<path d="M22.9023 3.21769C22.6406 2.23228 21.8695 1.45619 20.8905 1.19282C19.1159 0.714233 12 0.714233 12 0.714233C12 0.714233 4.88416 0.714233 3.10953 1.19282C2.13049 1.45623 1.3594 2.23228 1.09769 3.21769C0.622192 5.00382 0.622192 8.7304 0.622192 8.7304C0.622192 8.7304 0.622192 12.457 1.09769 14.2431C1.3594 15.2285 2.13049 15.9723 3.10953 16.2357C4.88416 16.7142 12 16.7142 12 16.7142C12 16.7142 19.1158 16.7142 20.8905 16.2357C21.8695 15.9723 22.6406 15.2285 22.9023 14.2431C23.3778 12.457 23.3778 8.7304 23.3778 8.7304C23.3778 8.7304 23.3778 5.00382 22.9023 3.21769ZM9.6727 12.1139V5.34694L15.6202 8.73048L9.6727 12.1139Z" fill="#111827"/>
</svg>
